<svg width="24" height="24" viewBox="0 0 24 24" fill="none" xmlns="http://www.w3.org/2000/svg">
  <path d="M12 4.5C7.58 4.5 4 8.08 4 12.5C4 16.92 7.58 20.5 12 20.5C16.42 20.5 20 16.92 20 12.5C20 8.08 16.42 4.5 12 4.5ZM7 13.5C6.45 13.5 6 13.05 6 12.5C6 11.95 6.45 11.5 7 11.5C7.55 11.5 8 11.95 8 12.5C8 13.05 7.55 13.5 7 13.5ZM11 7.5C11 6.95 11.45 6.5 12 6.5C12.55 6.5 13 6.95 13 7.5C13 8.05 12.55 8.5 12 8.5C11.45 8.5 11 8.05 11 7.5ZM12 17.5C11.45 17.5 11 17.05 11 16.5C11 15.95 11.45 15.5 12 15.5C12.55 15.5 13 15.95 13 16.5C13 17.05 12.55 17.5 12 17.5ZM15 10.5C14.45 10.5 14 10.05 14 9.5C14 8.95 14.45 8.5 15 8.5C15.55 8.5 16 8.95 16 9.5C16 10.05 15.55 10.5 15 10.5ZM17 14.5C16.45 14.5 16 14.05 16 13.5C16 12.95 16.45 12.5 17 12.5C17.55 12.5 18 12.95 18 13.5C18 14.05 17.55 14.5 17 14.5Z" fill="#e53935"/>
  <path d="M2 12.5C2 7.25 6.25 3 11.5 3C16.75 3 21 7.25 21 12.5H2Z" fill="#ff8f00" fill-opacity="0.5"/>
</svg>